<?xml version="1.0" standalone="no"?>
<!DOCTYPE svg PUBLIC "-//W3C//DTD SVG 1.1//EN" "http://www.w3.org/Graphics/SVG/1.1/DTD/svg11.dtd" >
<svg xmlns="http://www.w3.org/2000/svg">
<metadata>Generated by IcoMoon</metadata>
<defs>
<font id="icomoon" horiz-adv-x="1024">
<font-face units-per-em="1024" ascent="960" descent="-64" />
<missing-glyph horiz-adv-x="1024" />
<glyph unicode="&#x20;" horiz-adv-x="512" d="" />
<glyph unicode="&#xe900;" glyph-name="card" d="M256 725.333c-47.128 0-85.333-38.205-85.333-85.333v-384c0-47.128 38.205-85.333 85.333-85.333h512c47.128 0 85.333 38.205 85.333 85.333v384c0 47.128-38.205 85.333-85.333 85.333h-512zM256 810.667h512c94.257 0 170.667-76.41 170.667-170.667v-384c0-94.257-76.41-170.667-170.667-170.667h-512c-94.257 0-170.667 76.41-170.667 170.667v384c0 94.257 76.41 170.667 170.667 170.667zM170.667 597.333h682.667v-85.333h-682.667v85.333z" />
<glyph unicode="&#xe901;" glyph-name="close" d="M421.49 478.17c16.662-16.662 16.662-43.677 0-60.34l-211.189-211.189c-16.662-16.662-16.662-43.677 0-60.34s43.677-16.662 60.34 0l211.189 211.189c16.662 16.662 43.677 16.662 60.34 0l211.189-211.189c16.662-16.662 43.677-16.662 60.34 0s16.662 43.677 0 60.34l-211.189 211.189c-16.662 16.662-16.662 43.677 0 60.34l211.189 211.189c16.662 16.662 16.662 43.677 0 60.34s-43.677 16.662-60.34 0l-211.189-211.189c-16.662-16.662-43.677-16.662-60.34 0l-211.189 211.189c-16.662 16.662-43.677 16.662-60.34 0s-16.662-43.677 0-60.34l211.189-211.189z" />
<glyph unicode="&#xe902;" glyph-name="collapse" d="M512 21.333c-235.641 0-426.667 191.025-426.667 426.667s191.025 426.667 426.667 426.667c235.641 0 426.667-191.025 426.667-426.667s-191.025-426.667-426.667-426.667zM512 106.667c188.513 0 341.333 152.82 341.333 341.333s-152.82 341.333-341.333 341.333c-188.513 0-341.333-152.82-341.333-341.333s152.82-341.333 341.333-341.333zM358.4 405.333c-23.564 0-42.667 19.103-42.667 42.667s19.103 42.667 42.667 42.667h307.2c23.564 0 42.667-19.103 42.667-42.667s-19.103-42.667-42.667-42.667h-307.2z" />
<glyph unicode="&#xe903;" glyph-name="dropdown" d="M529.768 220.96l401.55 417.173c15.761 16.374 4.467 44.533-17.718 44.533h-803.099c-22.336 0-33.63-28.159-17.718-44.481l401.499-417.226c9.938-10.273 25.8-10.064 35.487 0z" />
<glyph unicode="&#xe904;" glyph-name="expand" d="M554.667 490.667h110.933c23.564 0 42.667-19.103 42.667-42.667s-19.103-42.667-42.667-42.667h-110.933v-110.933c0-23.564-19.103-42.667-42.667-42.667s-42.667 19.103-42.667 42.667v110.933h-110.933c-23.564 0-42.667 19.103-42.667 42.667s19.103 42.667 42.667 42.667h110.933v110.933c0 23.564 19.103 42.667 42.667 42.667s42.667-19.103 42.667-42.667v-110.933zM512 21.333c-235.641 0-426.667 191.025-426.667 426.667s191.025 426.667 426.667 426.667c235.641 0 426.667-191.025 426.667-426.667s-191.025-426.667-426.667-426.667zM512 106.667c188.513 0 341.333 152.82 341.333 341.333s-152.82 341.333-341.333 341.333c-188.513 0-341.333-152.82-341.333-341.333s152.82-341.333 341.333-341.333z" />
<glyph unicode="&#xe905;" glyph-name="filter" d="M512 874.667c235.34 0 426.667-191.327 426.667-426.667s-191.327-426.667-426.667-426.667c-235.34 0-426.667 191.327-426.667 426.667s191.327 426.667 426.667 426.667zM512 789.333c-188.212 0-341.333-153.121-341.333-341.333s153.121-341.333 341.333-341.333c188.212 0 341.333 153.121 341.333 341.333s-153.121 341.333-341.333 341.333zM469.333 277.333c-23.564 0-42.667 19.103-42.667 42.667s19.103 42.667 42.667 42.667h85.333c23.564 0 42.667-19.103 42.667-42.667s-19.103-42.667-42.667-42.667h-85.333zM341.333 533.333c-23.564 0-42.667 19.103-42.667 42.667s19.103 42.667 42.667 42.667h341.333c23.564 0 42.667-19.103 42.667-42.667s-19.103-42.667-42.667-42.667h-341.333zM405.333 405.333c-23.564 0-42.667 19.103-42.667 42.667s19.103 42.667 42.667 42.667h213.333c23.564 0 42.667-19.103 42.667-42.667s-19.103-42.667-42.667-42.667h-213.333z" />
<glyph unicode="&#xe906;" glyph-name="gift" d="M554.667 511.978v149.355h-85.333v-149.351l-297.71 0.017-0.008-85.294 297.719-0.017v-384.022h85.333v384.017l297.813-0.017v85.294l-297.813 0.017zM242.726 512h-71.111v85.333h680.865v-85.333h-71.253v-405.333c0 0-179.497 0-538.491 0l-0.010 405.333zM85.333 477.415c0-34.417 27.975-61.952 62.621-62.126l8.49-0.043v-307.727c0-47.392 38.731-86.187 86.21-86.187h538.785c47.597 0 86.187 38.618 86.187 86.187v307.727l8.32 0.042c34.732 0.173 62.72 27.747 62.72 62.126v143.125c0 34.476-27.984 62.126-62.507 62.126h-728.42c-34.325 0-62.407-27.854-62.407-62.126v-143.125zM266.43 832c0.002 26.365 21.225 42.669 47.402 42.667l379.278-0.029c26.363-0.002 47.397-16.455 47.395-42.637-0.002-26.365-21.28-42.669-47.527-42.667h-379.028c-26.334 0.002-47.521 16.484-47.519 42.667z" />
<glyph unicode="&#xe907;" glyph-name="goto" d="M289.83 94.17c-16.662-16.662-16.662-43.677 0-60.34s43.677-16.662 60.34 0l384 384c16.662 16.662 16.662 43.677 0 60.34l-384 384c-16.662 16.662-43.677 16.662-60.34 0s-16.662-43.677 0-60.34l353.83-353.83-353.83-353.83z" />
<glyph unicode="&#xe908;" glyph-name="hambuger" d="M128 234.667h768c23.564 0 42.667-19.103 42.667-42.667s-19.103-42.667-42.667-42.667h-768c-23.564 0-42.667 19.103-42.667 42.667s19.103 42.667 42.667 42.667v0zM341.333 746.667h554.667c23.564 0 42.667-19.103 42.667-42.667v0c0-23.564-19.103-42.667-42.667-42.667h-554.667c-23.564 0-42.667 19.103-42.667 42.667v0 0c0 23.564 19.103 42.667 42.667 42.667zM128 490.667h768c23.564 0 42.667-19.103 42.667-42.667s-19.103-42.667-42.667-42.667h-768c-23.564 0-42.667 19.103-42.667 42.667s19.103 42.667 42.667 42.667v0z" />
<glyph unicode="&#xe909;" glyph-name="information" d="M512 874.667c-236.444 0-426.667-190.222-426.667-426.667s190.222-426.667 426.667-426.667c236.444 0 426.667 190.222 426.667 426.667s-190.222 426.667-426.667 426.667zM512 789.333c189.156 0 341.333-152.178 341.333-341.333s-152.178-341.333-341.333-341.333c-189.156 0-341.333 152.178-341.333 341.333s152.178 341.333 341.333 341.333zM555.109 640c-39.737 0-56.514-27.429-56.514-47.363-0.823-23.661 12.804-37.971 41.408-37.971 34.183 0 54.237 23.035 54.237 47.949 0 19.933-8.921 37.384-39.132 37.384zM470.335 255.691c19.28 0 66.202 15.862 112.314 56.081 1.834 1.6 4.186 3.745 7.055 6.434 4.204 3.941 4.767 10.415 1.306 15.022-3.321 4.42-9.544 5.417-14.080 2.256v0c-2.193-1.528-4.010-2.74-5.452-3.636-15.605-9.692-29.434-14.397-34.431-14.397-4.951 0-7.068 6.412-2.117 25.074l27.996 105.497c10.652 38.586 7.101 63.668-14.227 63.668-22.964 0-73.534-20.462-121.193-55.936-2.026-1.508-4.615-3.507-7.767-5.998-4.585-3.623-5.737-10.102-2.683-15.084 2.919-4.761 9.095-6.337 13.938-3.556v0c2.698 1.549 5.008 2.808 6.931 3.779 14.53 7.332 30.242 13.128 34.853 13.128 4.951 0 4.234-6.412 0-22.519l-24.454-100.346c-14.911-56.601 0.717-69.466 22.012-69.466z" />
<glyph unicode="&#xe90a;" glyph-name="left" d="M128.497 490.168c-23.856 0-43.164-18.947-43.164-42.279s19.307-42.279 43.164-42.279h628.211c5.894 0 10.671-4.778 10.671-10.671 0-2.864-1.151-5.608-3.195-7.615l-77.843-80.765c-16.829-16.515-16.829-43.219 0-59.733 16.873-16.559 44.166-16.559 61.040 0l184.895 185.833c8.411 8.258 8.535 21.771 0.277 30.182-0.061 0.062-61.785 62.102-185.172 186.118-16.873 16.559-44.166 16.559-61.040 0-16.829-16.515-16.829-43.219 0-59.733l77.843-80.772c4.206-4.129 4.268-10.885 0.139-15.091-2.007-2.044-4.751-3.195-7.615-3.195h-628.211z" />
<glyph unicode="&#xe90b;" glyph-name="location" d="M516.004 175.829c29.658 44.838 59.312 91.728 86.943 138.29 14.833 24.996 28.69 49.252 41.391 72.551 51.509 94.492 80.995 168.315 80.995 205.983 0 110.182-95.334 199.912-213.333 199.912-118.047 0-213.333-89.703-213.333-199.912 0-37.668 29.486-111.491 80.995-205.983 12.701-23.299 26.558-47.556 41.391-72.551 27.631-46.562 57.285-93.452 86.943-138.29 1.347-2.037 2.682-4.051 4.004-6.041 1.322 1.99 2.657 4.004 4.004 6.041zM810.667 592.653c0-55.696-32.767-137.734-90.758-244.117-13.197-24.209-27.54-49.316-42.856-75.125-28.369-47.807-58.715-95.788-89.057-141.662-10.62-16.056-20.487-30.71-29.352-43.674-5.346-7.817-9.189-13.361-11.281-16.343l-35.363-50.399-35.363 50.399c-2.092 2.981-5.935 8.526-11.281 16.343-8.865 12.964-18.732 27.618-29.352 43.674-30.342 45.873-60.688 93.855-89.057 141.662-15.316 25.81-29.659 50.916-42.856 75.125-57.991 106.383-90.758 188.421-90.758 244.117 0 155.957 133.902 282.013 298.667 282.013 164.713 0 298.667-126.079 298.667-282.013zM512 464.429c-72.923 0-132.267 56.345-132.267 126.123s59.343 126.123 132.267 126.123c72.923 0 132.267-56.345 132.267-126.123s-59.343-126.123-132.267-126.123zM512 546.53c26.046 0 46.933 19.832 46.933 44.022s-20.887 44.022-46.933 44.022c-26.046 0-46.933-19.832-46.933-44.022s20.887-44.022 46.933-44.022z" />
<glyph unicode="&#xe90c;" glyph-name="lock" d="M320 597.333c0 106.039 85.961 192 192 192s192-85.961 192-192c0-23.564 19.103-42.667 42.667-42.667s42.667 19.103 42.667 42.667c0 153.167-124.166 277.333-277.333 277.333s-277.333-124.166-277.333-277.333c0-23.564 19.103-42.667 42.667-42.667s42.667 19.103 42.667 42.667zM874.667 393.481c0 64.866-51.305 118.519-115.2 118.519h-494.933c-63.895 0-115.2-53.652-115.2-118.519v-253.63c0-64.866 51.305-118.519 115.2-118.519h494.933c63.895 0 115.2 53.652 115.2 118.519v253.63zM789.333 393.481v-253.63c0-18.571-13.975-33.185-29.867-33.185h-494.933c-15.892 0-29.867 14.614-29.867 33.185v253.63c0 18.571 13.975 33.185 29.867 33.185h494.933c15.892 0 29.867-14.614 29.867-33.185z" />
<glyph unicode="&#xe90d;" glyph-name="message" d="M357.707 185.544c10.792 3.597 22.574 2.736 32.729-2.393 44.268-22.36 93.191-33.947 142.88-33.817 121.182 0.047 231.942 68.543 286.198 177.103 22.36 44.268 33.947 93.191 33.818 142.785v20.232c-9.48 161.515-138.364 290.399-299.879 299.879h-20.232c-49.594 0.129-98.518-11.458-142.947-33.899-108.398-54.176-176.894-164.935-176.941-286.212-0.129-49.594 11.458-98.518 33.818-142.785 5.129-10.154 5.99-21.936 2.393-32.729l-54.082-162.245 162.245 54.082zM938.665 469.387c0.155-63.015-14.572-125.176-42.901-181.262-68.622-137.304-208.918-224.066-362.32-224.125-56.963-0.149-113.23 11.864-165.063 35.152l-226.889-75.63c-33.355-11.118-65.088 20.615-53.97 53.97l75.63 226.889c-23.288 51.832-35.301 108.091-35.153 164.968 0.059 153.497 86.821 293.793 223.963 362.334 56.265 28.419 118.446 43.147 181.369 42.982h21.333c208.206-11.422 372.578-175.793 383.935-381.649l0.065-23.63zM362.667 405.333c-23.564 0-42.667 19.103-42.667 42.667s19.103 42.667 42.667 42.667c23.564 0 42.667-19.103 42.667-42.667s-19.103-42.667-42.667-42.667zM533.333 405.333c-23.564 0-42.667 19.103-42.667 42.667s19.103 42.667 42.667 42.667c23.564 0 42.667-19.103 42.667-42.667s-19.103-42.667-42.667-42.667zM704 405.333c-23.564 0-42.667 19.103-42.667 42.667s19.103 42.667 42.667 42.667c23.564 0 42.667-19.103 42.667-42.667s-19.103-42.667-42.667-42.667z" />
<glyph unicode="&#xe90e;" glyph-name="movedown" d="M200.837 499.503l311.163-289.83 311.163 289.83c16.662 16.662 43.677 16.662 60.34 0s16.662-43.677 0-60.34l-341.333-320c-16.662-16.662-43.677-16.662-60.34 0l-341.333 320c-16.662 16.662-16.662 43.677 0 60.34s43.677 16.662 60.34 0zM200.837 776.837l311.163-289.83 311.163 289.83c16.662 16.662 43.677 16.662 60.34 0s16.662-43.677 0-60.34l-341.333-320c-16.662-16.662-43.677-16.662-60.34 0l-341.333 320c-16.662 16.662-16.662 43.677 0 60.34s43.677 16.662 60.34 0z" />
<glyph unicode="&#xe90f;" glyph-name="moveup" d="M200.837 396.497l311.163 289.83 311.163-289.83c16.662-16.662 43.677-16.662 60.34 0s16.662 43.677 0 60.34l-341.333 320c-16.662 16.662-43.677 16.662-60.34 0l-341.333-320c-16.662-16.662-16.662-43.677 0-60.34s43.677-16.662 60.34 0zM200.837 119.163l311.163 289.83 311.163-289.83c16.662-16.662 43.677-16.662 60.34 0s16.662 43.677 0 60.34l-341.333 320c-16.662 16.662-43.677 16.662-60.34 0l-341.333-320c-16.662-16.662-16.662-43.677 0-60.34s43.677-16.662 60.34 0z" />
<glyph unicode="&#xe910;" glyph-name="next" d="M725.333 789.333c70.692 0 128-57.308 128-128v-405.333c0-70.692-57.308-128-128-128h-426.667c-70.692 0-128 57.308-128 128v405.333c0 70.692 57.308 128 128 128h426.667zM725.333 874.667h-426.667c-117.821 0-213.333-95.513-213.333-213.333v-405.333c0-117.821 95.513-213.333 213.333-213.333h426.667c117.821 0 213.333 95.513 213.333 213.333v405.333c0 117.821-95.513 213.333-213.333 213.333zM724.836 490.168c23.856 0 43.164-18.947 43.164-42.279s-19.307-42.279-43.164-42.279h-286.878c-5.894 0-10.671-4.778-10.671-10.671 0-2.864 1.151-5.608 3.195-7.615l35.176-38.098c16.829-16.515 16.829-43.219 0-59.733-16.873-16.559-44.166-16.559-61.040 0l-142.228 143.167c-8.411 8.258-8.535 21.771-0.277 30.182 0.061 0.062 47.563 47.879 142.506 143.452 16.873 16.559 44.166 16.559 61.040 0 16.829-16.515 16.829-43.219 0-59.733l-35.176-38.106c-4.206-4.129-4.268-10.885-0.139-15.091 2.007-2.044 4.751-3.195 7.615-3.195h286.878z" />
<glyph unicode="&#xe911;" glyph-name="phone" d="M770.582 763.169c-172.511 35.19-347.528 34.593-517.163 0-22.619-4.626-40.085-24.584-40.085-44.703v-64.833c0-10.994 9.921-22.167 16.696-22.167h89.043c6.775 0 16.696 11.173 16.696 22.167v88.612l38.453 3.816c90.867 9.018 184.752 9.018 275.56 0l38.45-3.818v-88.61c0-10.994 9.921-22.167 16.696-22.167h89.043c6.775 0 16.696 11.173 16.696 22.167v64.833c0 20.119-17.466 40.077-40.085 44.703zM421.101 653.633c0-56.012-45.717-107.5-102.029-107.5h-89.043c-56.312 0-102.029 51.489-102.029 107.5v64.833c0 61.936 47.132 115.792 108.344 128.31 180.815 36.873 367.429 37.509 551.314 0 61.21-12.518 108.342-66.374 108.342-128.31v-64.833c0-56.012-45.717-107.5-102.029-107.5h-89.043c-56.312 0-102.029 51.489-102.029 107.5v10.744c-60.24 4.153-121.528 4.153-181.797-0.002v-10.742zM768 405.333c0 23.564 19.103 42.667 42.667 42.667s42.667-19.103 42.667-42.667v-243.81c0-77.237-62.975-140.19-140.19-140.19h-402.286c-77.216 0-140.19 62.953-140.19 140.19v243.81c0 23.564 19.103 42.667 42.667 42.667s42.667-19.103 42.667-42.667v-243.81c0-30.103 24.763-54.857 54.857-54.857h402.286c30.094 0 54.857 24.755 54.857 54.857v243.81zM341.333 405.333c0 23.564 19.103 42.667 42.667 42.667s42.667-19.103 42.667-42.667v-170.667c0-23.564-19.103-42.667-42.667-42.667s-42.667 19.103-42.667 42.667v170.667zM469.333 405.333c0 23.564 19.103 42.667 42.667 42.667s42.667-19.103 42.667-42.667v-170.667c0-23.564-19.103-42.667-42.667-42.667s-42.667 19.103-42.667 42.667v170.667zM597.333 405.333c0 23.564 19.103 42.667 42.667 42.667s42.667-19.103 42.667-42.667v-170.667c0-23.564-19.103-42.667-42.667-42.667s-42.667 19.103-42.667 42.667v170.667z" />
<glyph unicode="&#xe912;" glyph-name="previous" d="M298.667 789.333c-70.692 0-128-57.308-128-128v-405.333c0-70.692 57.308-128 128-128h426.667c70.692 0 128 57.308 128 128v405.333c0 70.692-57.308 128-128 128h-426.667zM298.667 874.667h426.667c117.821 0 213.333-95.513 213.333-213.333v-405.333c0-117.821-95.513-213.333-213.333-213.333h-426.667c-117.821 0-213.333 95.513-213.333 213.333v405.333c0 117.821 95.513 213.333 213.333 213.333zM299.164 490.168c-23.856 0-43.164-18.947-43.164-42.279s19.307-42.279 43.164-42.279h286.878c5.894 0 10.671-4.778 10.671-10.671 0-2.864-1.151-5.608-3.195-7.615l-35.176-38.098c-16.829-16.515-16.829-43.219 0-59.733 16.873-16.559 44.166-16.559 61.040 0l142.228 143.167c8.411 8.258 8.535 21.771 0.277 30.182-0.061 0.062-47.563 47.879-142.506 143.452-16.873 16.559-44.166 16.559-61.040 0-16.829-16.515-16.829-43.219 0-59.733l35.176-38.106c4.206-4.129 4.268-10.885 0.139-15.091-2.007-2.044-4.751-3.195-7.615-3.195h-286.878z" />
<glyph unicode="&#xe913;" glyph-name="statement" d="M788.666 213.239l-0.459 0.446c0.155-0.147 0.308-0.295 0.459-0.446zM627.93 647.991l-3.043-2.721c-40.125-34.188-91.042-50.564-144.648-50.564l-227.168 0.016c-44.557-0.852-82.405-41.001-82.405-88.68v-3.551c0-43.802 33.632-76.236 80.774-76.236h228.799c53.685 0 105.254-20.802 146.434-55.89l2.12-1.806 78.441-76.202c4.225-4.105 10.979-4.007 15.083 0.218 1.934 1.991 3.016 4.657 3.016 7.432v414.735c0 5.891-4.776 10.667-10.667 10.667-2.711 0-5.321-1.033-7.298-2.888l-79.438-74.53zM810.667 177.576c0-42.612-53.583-53.265-82.16-24.857l-157.176 152.692c-25.005 21.306-57.155 35.51-91.091 35.51h-228.799c-92.877 0-166.107 69.244-166.107 161.569v3.551c0 92.325 73.23 172.222 166.107 173.998h228.799c32.15 0 64.299 8.877 89.305 30.183l158.962 149.141c28.578 28.408 82.16 15.979 82.16-26.632v-655.155zM860.99 427.006c-0.207-0.018-0.415-0.028-0.623-0.028-3.885 0-7.034 3.149-7.034 7.034v155.351c0 0.245 0.012 0.49 0.036 0.734 0.405 4.18 4.123 7.24 8.303 6.835 43.215-4.191 76.995-40.616 76.995-84.931 0-44.548-34.136-81.123-77.677-84.994zM213.333 256c0 23.564 19.103 42.667 42.667 42.667s42.667-19.103 42.667-42.667v-122.824c0-5.658 2.248-11.084 6.248-15.085l23.922-23.921c16.662-16.662 16.662-43.677 0-60.34s-43.677-16.662-60.34 0l-30.17 30.17c-16.003 16.003-24.994 37.708-24.994 60.34v131.66zM362.667 256c0 23.564 19.103 42.667 42.667 42.667s42.667-19.103 42.667-42.667v-122.824c0-5.658 2.248-11.084 6.248-15.085l23.922-23.921c16.662-16.662 16.662-43.677 0-60.34s-43.677-16.662-60.34 0l-30.17 30.17c-16.003 16.003-24.994 37.708-24.994 60.34v131.66z" />
<glyph unicode="&#xe914;" glyph-name="succeed" d="M512 874.667c236.444 0 426.667-190.222 426.667-426.667s-190.222-426.667-426.667-426.667c-236.444 0-426.667 190.222-426.667 426.667s190.222 426.667 426.667 426.667zM512 789.333c-189.156 0-341.333-152.178-341.333-341.333s152.178-341.333 341.333-341.333c189.156 0 341.333 152.178 341.333 341.333s-152.178 341.333-341.333 341.333zM462.371 381.168l-90.49 75.286c-16.451 16.871-43.464 17.212-60.335 0.761s-17.212-43.464-0.761-60.335l119.559-105.098c17.273-17.715 45.637-18.073 63.352-0.799 0.286 0.282 73.476 85.375 219.568 255.281 16.423 16.899 16.037 43.911-0.862 60.334s-43.911 16.037-60.334-0.862l-189.697-224.568z" />
<glyph unicode="&#xe915;" glyph-name="top" d="M512 21.333c-235.641 0-426.667 191.025-426.667 426.667s191.025 426.667 426.667 426.667c235.641 0 426.667-191.025 426.667-426.667s-191.025-426.667-426.667-426.667zM512 106.667c188.513 0 341.333 152.82 341.333 341.333s-152.82 341.333-341.333 341.333c-188.513 0-341.333-152.82-341.333-341.333s152.82-341.333 341.333-341.333zM609.83 353.83l-97.83 97.83-97.83-97.83c-16.662-16.662-43.677-16.662-60.34 0s-16.662 43.677 0 60.34l128 128c16.662 16.662 43.677 16.662 60.34 0l128-128c16.662-16.662 16.662-43.677 0-60.34s-43.677-16.662-60.34 0z" />
<glyph unicode="&#xe916;" glyph-name="user" d="M896 64v85.333c0 117.821-95.513 213.333-213.333 213.333h-341.333c-117.821 0-213.333-95.513-213.333-213.333v-85.333c0-23.564 19.103-42.667 42.667-42.667s42.667 19.103 42.667 42.667v85.333c0 70.692 57.308 128 128 128h341.333c70.692 0 128-57.308 128-128v-85.333c0-23.564 19.103-42.667 42.667-42.667s42.667 19.103 42.667 42.667zM512 448c-117.821 0-213.333 95.513-213.333 213.333s95.513 213.333 213.333 213.333c117.821 0 213.333-95.513 213.333-213.333s-95.513-213.333-213.333-213.333zM512 533.333c70.692 0 128 57.308 128 128s-57.308 128-128 128c-70.692 0-128-57.308-128-128s57.308-128 128-128z" />
<glyph unicode="&#xe917;" glyph-name="minus" d="M807.822 490.667c25.135 0 45.511-19.103 45.511-42.667s-20.376-42.667-45.511-42.667h-591.644c-25.135 0-45.511 19.103-45.511 42.667s20.376 42.667 45.511 42.667h591.644z" />
<glyph unicode="&#xe918;" glyph-name="plus" d="M554.667 405.333h253.156c25.135 0 45.511 19.103 45.511 42.667s-20.376 42.667-45.511 42.667h-253.156v253.156c0 25.135-19.103 45.511-42.667 45.511s-42.667-20.376-42.667-45.511v-253.156h-253.156c-25.135 0-45.511-19.103-45.511-42.667s20.376-42.667 45.511-42.667h253.156v-253.156c0-25.135 19.103-45.511 42.667-45.511s42.667 20.376 42.667 45.511v253.156z" />
<glyph unicode="&#xe919;" glyph-name="whatsapp" d="M112.738 93.86c-11.154-33.155 20.137-64.907 53.452-54.239l128.689 41.209c65.157-38.681 139.681-59.497 217.155-59.497 235.278 0 426.633 191.36 426.633 426.667 0 235.301-191.35 426.667-426.667 426.667v-85.333c188.187 0 341.333-153.159 341.333-341.333 0-188.179-153.151-341.333-341.3-341.333-67.692 0-132.409 19.807-187.759 56.424-10.789 7.138-24.233 8.995-36.553 5.050l-67.201-21.519 21.079 62.658c4.405 13.094 2.198 27.511-5.924 38.687-42.018 57.818-65.009 127.244-65.009 200.067 0 188.176 153.148 341.3 341.333 341.3v85.333c-235.311 0-426.667-191.326-426.667-426.633 0-83.379 24.165-163.345 68.595-231.736l-41.191-122.438zM679.774 366.033c-2.094 3.733-7.677 6.033-16.026 10.497-8.375 4.518-49.45 26.296-57.102 29.272-7.677 3.003-13.235 4.518-18.818-4.491-5.558-9.009-21.585-29.245-26.47-35.278s-9.77-6.763-18.12-2.273c-8.35 4.491-35.268 14.014-67.197 44.639-24.85 23.888-41.599 53.323-46.459 62.359-4.885 8.982-0.523 13.852 3.639 18.342 14.107 15.096 17.597 23.564 20.937 30.787 2.816 5.979 1.396 11.227-0.698 15.772-2.094 4.491-18.818 48.778-25.772 66.742-7.876 20.48-42.995 21.183-57.127 4.572-44.59-52.511-34.296-112.030 4.885-168.166 4.187-6.006 57.8-99.828 142.768-135.864 84.943-36.009 84.943-23.997 100.271-22.482 44.042 4.302 73.851 62.846 61.289 85.571z" />
<glyph unicode="&#xe91a;" glyph-name="viber" d="M878.821 669.514l-0.229 0.985c-18.528 80.518-102.057 166.918-178.766 184.893l-0.865 0.192c-124.072 25.444-249.875 25.444-373.922 0l-0.891-0.192c-76.683-17.975-160.212-104.375-178.766-184.893l-0.204-0.985c-22.906-112.446-22.906-226.479 0-338.926l0.204-0.985c17.762-77.082 95.071-159.512 168.916-182.182v-89.88c0-32.53 36.878-48.508 57.849-25.034l84.713 94.66c18.373-1.105 36.756-1.721 55.139-1.721 62.456 0 124.937 6.347 186.961 19.069l0.865 0.192c76.708 17.975 160.238 104.375 178.766 184.893l0.229 0.985c22.906 112.449 22.906 226.482 0 338.928v0zM811.784 346.894c-12.369-52.53-75.792-117.836-126.185-129.901-65.971-13.485-132.463-19.25-198.89-17.272-1.321 0.038-2.591-0.512-3.512-1.529-9.427-10.402-61.853-68.256-61.853-68.256l-65.79-72.584c-4.81-5.39-13.26-1.724-13.26 5.718v148.894c0 2.46-1.634 4.55-3.881 5.023-0.013 0.003-0.025 0.005-0.038 0.008-50.392 12.065-113.79 77.372-126.185 129.901-20.615 101.639-20.615 204.674 0 306.314 12.394 52.53 75.792 117.836 126.185 129.901 115.215 23.556 232.034 23.556 347.224 0 50.418-12.065 113.815-77.372 126.185-129.901 20.638-101.642 20.638-204.677 0-306.316v0zM595.621 517.336c-7.775-0.15-11.936 4.476-12.738 12.139-0.557 5.343-0.998 10.758-2.184 15.956-2.336 10.238-7.399 19.726-15.41 25.999-3.782 2.963-8.068 5.122-12.557 6.514-5.703 1.77-11.626 1.283-17.317 2.782-6.179 1.628-9.597 7.007-8.625 13.239 0.883 5.672 6.017 10.098 11.781 9.65 36.031-2.796 61.782-22.82 65.457-68.417 0.26-3.217 0.565-6.618-0.099-9.696-1.138-5.269-4.767-7.91-8.307-8.167-7.775-0.15 3.54 0.257 0 0v0zM653.424 514.918c-0.153-1.248-0.234-4.18-0.914-6.944-2.466-10.030-16.612-11.286-19.869-1.163-0.965 3.004-1.11 6.421-1.115 9.655-0.033 21.16-4.311 42.297-14.237 60.707-10.203 18.922-25.792 34.828-44.076 44.453-11.056 5.819-23.013 9.436-35.13 11.592-5.296 0.941-10.649 1.513-15.97 2.309-6.449 0.963-9.893 5.382-9.587 12.213 0.285 6.402 4.637 11.007 11.127 10.613 21.328-1.302 41.927-6.257 60.888-17.050 38.558-21.95 60.583-56.598 67.012-102.862 0.29-2.096 0.758-4.172 0.906-6.276 0.364-5.196 0.593-10.396 0.965-17.247-0.153-1.248-0.372 6.851 0 0v0zM512.193 711.729c92.933-2.799 169.262-69.098 185.62-167.865 2.787-16.829 3.779-34.035 5.019-51.115 0.522-7.185-3.263-14.011-10.476-14.104-7.449-0.096-10.801 6.605-11.285 13.786-0.957 14.216-1.621 28.495-3.443 42.593-9.62 74.42-64.823 135.989-133.731 149.201-10.369 1.989-20.982 2.512-31.485 3.696-6.64 0.75-15.337 1.182-16.808 10.055-1.234 7.439 4.607 13.362 11.196 13.743 1.792 0.107 3.594 0.019 5.393 0.011 92.933-2.799-1.799 0.008 0 0v0zM621.619 278.165c-7.747 2.528-15.13 4.227-21.987 7.286-71.048 31.687-136.436 72.568-188.231 135.234-29.454 35.635-52.507 75.867-71.995 118.443-9.241 20.191-17.029 41.173-24.967 62.018-7.238 19.009 3.423 38.648 14.649 52.97 10.534 13.442 24.089 23.729 38.769 31.31 11.458 5.918 22.761 2.506 31.129-7.934 18.090-22.571 34.707-46.297 48.163-72.461 8.274-16.093 6.004-35.764-8.992-46.716-3.645-2.662-6.966-5.786-10.361-8.793-2.978-2.635-5.78-5.297-7.821-8.864-3.731-6.528-3.909-14.227-1.507-21.324 18.492-54.631 49.662-97.111 100.813-119.992 8.185-3.661 16.406-7.923 25.835-6.741 15.792 1.984 20.905 20.604 31.971 30.333 10.817 9.507 24.639 9.633 36.29 1.707 11.654-7.929 22.951-16.44 34.18-25.042 11.023-8.443 21.997-16.703 32.165-26.328 9.776-9.256 13.143-21.398 7.638-33.958-10.078-23.004-24.743-42.141-45.898-54.357-5.973-3.445-13.107-4.561-19.844-6.791-7.747 2.531 6.737 2.23 0 0v0z" />
<glyph unicode="&#xe91b;" glyph-name="sms" d="M85.333 476.444c0 220.697 191.727 398.222 426.667 398.222s426.667-177.525 426.667-398.222c0-220.697-191.727-398.222-426.667-398.222-36.629 0-72.696 4.333-107.582 12.795l-175.979-67.869v155.73c-90.015 74.718-143.106 181.977-143.106 297.566zM399.651 180.638l13.583-3.759c31.79-8.798 64.945-13.324 98.766-13.324 189.216 0 341.333 140.849 341.333 312.889s-152.117 312.889-341.333 312.889c-189.216 0-341.333-140.849-341.333-312.889 0-95.123 46.649-183.449 125.97-242.691l17.135-12.798v-73.437l85.879 33.12zM341.333 405.333c23.564 0 42.667 19.103 42.667 42.667s-19.103 42.667-42.667 42.667c-23.564 0-42.667-19.103-42.667-42.667s19.103-42.667 42.667-42.667zM512 405.333c23.564 0 42.667 19.103 42.667 42.667s-19.103 42.667-42.667 42.667c-23.564 0-42.667-19.103-42.667-42.667s19.103-42.667 42.667-42.667zM682.667 405.333c23.564 0 42.667 19.103 42.667 42.667s-19.103 42.667-42.667 42.667c-23.564 0-42.667-19.103-42.667-42.667s19.103-42.667 42.667-42.667z" />
<glyph unicode="&#xe91c;" glyph-name="messenger" d="M85.333 476.444c0 220.697 191.727 398.222 426.667 398.222s426.667-177.525 426.667-398.222c0-220.697-191.727-398.222-426.667-398.222-36.629 0-72.696 4.333-107.582 12.795l-175.979-67.869v155.73c-90.015 74.718-143.106 181.977-143.106 297.566zM399.651 180.638l13.583-3.759c31.79-8.798 64.945-13.324 98.766-13.324 189.216 0 341.333 140.849 341.333 312.889s-152.117 312.889-341.333 312.889c-189.216 0-341.333-140.849-341.333-312.889 0-95.123 46.649-183.449 125.97-242.691l17.135-12.798v-73.437l85.879 33.12zM542.316 362.667l-75.33 79.887-146.986-79.887 161.684 170.667 77.167-79.887 145.148 79.887-161.684-170.667z" />
<glyph unicode="&#xe91d;" glyph-name="facebook" d="M725.333 641.742c25.304 0 45.048-21.897 42.439-47.066l-13.867-133.769c-2.254-21.744-20.578-38.267-42.439-38.267h-102.596c0-18.49 0-31.604 0-64.561v-294.079c0-23.564-19.103-42.667-42.667-42.667h-167.211c-23.564 0-42.667 19.103-42.667 42.667v299.035c0 30.348 0 43.008 0 58.228l-57.66 1.377c-23.564 0-42.667 19.103-42.667 42.667v133.769c0 23.564 19.103 42.667 42.667 42.667h57.66v29.067c0 115.209 61.876 203.858 198.99 203.858l161.172-0.435c23.519-0.063 42.552-19.147 42.552-42.667v-131.829c0-23.564-19.103-42.667-42.667-42.667h-116.326c0.907 0 2.48 0.462 4.854 2.404 2.913 2.383 3.969 4.854 3.969 3.309v-21.041h116.462zM566.204 556.408c-23.564 0-42.667 19.103-42.667 42.667v63.707c0 50.998 34.983 79.62 76.51 79.62h63.405c7.775 0 14.044 0 19.191 0l-8.937 46.611-118.505 0.32c-81.957 0-113.542-45.251-113.542-118.525v-71.734c0-23.564-19.103-42.667-42.667-42.667h-57.66v-48.435h57.66c23.564 0 42.667-19.103 42.667-42.667v-307.858c0-40.625 0-59.174 0-70.642l81.878 19.861c0-8.439 0 9.847 0 49.233v309.407c0 23.564 19.103 42.667 42.667 42.667h106.79l5.021 48.435h-111.811z" />
<glyph unicode="&#xe91e;" glyph-name="email" d="M213.333 704c-23.564 0-42.667-19.103-42.667-42.667v-426.667c0-23.564 19.103-42.667 42.667-42.667h597.333c23.564 0 42.667 19.103 42.667 42.667v426.667c0 23.564-19.103 42.667-42.667 42.667h-597.333zM213.333 789.333h597.333c70.692 0 128-57.308 128-128v-426.667c0-70.692-57.308-128-128-128h-597.333c-70.692 0-128 57.308-128 128v426.667c0 70.692 57.308 128 128 128zM631.99 448.379l141.695 115.932c18.238 14.922 20.926 41.803 6.004 60.040s-41.803 20.926-60.040 6.004l-207.649-169.894-207.649 169.894c-18.238 14.922-45.119 12.234-60.040-6.004s-12.234-45.119 6.004-60.040l141.695-115.932-141.8-116.777c-18.19-14.98-20.792-41.869-5.812-60.059s41.869-20.792 60.059-5.812l154.6 127.317 26.255-21.004c15.592-12.503 37.785-12.503 53.376 0l26.255 21.004 154.6-127.317c18.19-14.98 45.079-12.378 60.059 5.812s12.378 45.079-5.812 60.059l-141.8 116.777z" />
<glyph unicode="&#xe91f;" glyph-name="checked" d="M441.038 273.856l-218.49 203.49c-16.451 16.917-43.464 17.259-60.335 0.763s-17.212-43.582-0.761-60.499l247.559-233.383c17.273-17.763 45.637-18.122 63.352-0.801 0.286 0.283 130.365 156.719 390.235 469.308 16.423 16.945 16.037 44.030-0.862 60.498s-43.911 16.080-60.334-0.864l-360.364-438.511z" />
</font>
</defs>
</svg>
